<?xml version="1.0" encoding="iso-8859-1"?><svg xmlns="http://www.w3.org/2000/svg" width="135" height="54" viewBox="0 0 135 54"><g transform="translate(0.393 0.046)"><rect width="135" height="54" transform="translate(-0.393 -0.046)" fill="none"/><g transform="translate(14.512 6.356)"><path d="M85.5,65.394l6.2-2.23V54.1l-6.2,2.114Z" transform="translate(-63.78 -39.012)" fill="#989898"/><path d="M85.7,19.464l6.168,2.23v-9.18L85.7,10.4Z" transform="translate(-63.922 -7.967)" fill="#989898"/><path d="M117.1,10.4l-6.2,2.114v9.18l6.2-2.23Z" transform="translate(-81.825 -7.967)" fill="#989898"/><path d="M94.155,2,87.9,3.767l6.255,2.085,5.792-1.969Z" transform="translate(-65.485 -2)" fill="#989898"/><path d="M61.1,109.094l6.2-2.23V97.8l-6.2,2.114Z" transform="translate(-46.446 -70.057)" fill="#989898"/><path d="M68.755,45.7,62.5,47.467l6.255,2.085,5.792-1.969Z" transform="translate(-47.441 -33.045)" fill="#989898"/><path d="M160.7,21.694l6.2-2.23V10.4l-6.2,2.114Z" transform="translate(-117.203 -7.967)" fill="#989898"/><path d="M66.468,56.214,60.3,54.1v9.064l6.168,2.23Z" transform="translate(-45.878 -39.012)" fill="#989898"/><path d="M44.355,89.4,38.1,91.167l6.255,2.085,5.792-1.969Z" transform="translate(-30.107 -64.089)" fill="#989898"/><path d="M149.747,3.882,143.955,2,137.7,3.767l6.255,2.085Z" transform="translate(-100.864 -2)" fill="#989898"/><path d="M10.5,63.164l6.168,2.23v-9.18L10.5,54.1Z" transform="translate(-10.5 -39.012)" fill="#989898"/><path d="M18.884,45.7,12.6,47.467l6.284,2.085,5.792-1.969Z" transform="translate(-11.992 -33.045)" fill="#989898"/><path d="M35.9,106.864l6.168,2.23v-9.18L35.9,97.8Z" transform="translate(-28.544 -70.057)" fill="#989898"/><path d="M41.9,54.1l-6.2,2.114v9.18l6.2-2.23Z" transform="translate(-28.402 -39.012)" fill="#989898"/><path d="M141.668,12.514,135.5,10.4v9.064l6.168,2.23Z" transform="translate(-99.301 -7.967)" fill="#989898"/><path d="M258.227,116.048a3.648,3.648,0,0,0-1.043,1.535V115.9H256.2v7.211h1.129l-.029-3.852a2.7,2.7,0,0,1,.666-1.8,1.966,1.966,0,0,1,1.535-.7h.232V115.7H259.3A1.82,1.82,0,0,0,258.227,116.048Z" transform="translate(-185.047 -82.773)" fill="#989898"/><path d="M276.342,116.4l-2,5.85-2-5.85H271.1l2.577,7.211h1.158l2.491-7.211h-.985Z" transform="translate(-195.632 -83.27)" fill="#989898"/><rect width="1.216" height="1.245" transform="translate(82.592 30.61)" fill="#989898"/><rect width="1.129" height="7.211" transform="translate(82.65 33.13)" fill="#989898"/><path d="M355.6,118.966l-1.39-.261c-.753-.145-1.129-.492-1.129-1.014a.885.885,0,0,1,.434-.782,2.189,2.189,0,0,1,1.129-.29,1.753,1.753,0,0,1,1.824,1.129l1.014-.232c-.376-1.216-1.332-1.824-2.9-1.824a2.93,2.93,0,0,0-1.94.608,1.936,1.936,0,0,0-.724,1.506,1.767,1.767,0,0,0,.521,1.332,2.926,2.926,0,0,0,1.419.666l1.506.29c.84.145,1.245.521,1.245,1.072a.944.944,0,0,1-.492.9,2.155,2.155,0,0,1-1.187.319c-1.274,0-2.027-.463-2.259-1.361l-1.072.232h0c.405,1.361,1.477,2.056,3.215,2.056a3.586,3.586,0,0,0,2.172-.608,1.936,1.936,0,0,0,.811-1.593C357.8,119.95,357.073,119.226,355.6,118.966Z" transform="translate(-252.819 -82.766)" fill="#989898"/><path d="M306.306,122.355a1.509,1.509,0,0,1-1.39-.753,4.721,4.721,0,0,1,0-4.2,1.579,1.579,0,0,1,1.419-.782c.956,0,1.535.608,1.738,1.8l1.014-.2a3.088,3.088,0,0,0-.869-1.824,2.5,2.5,0,0,0-1.882-.7,2.642,2.642,0,0,0-2.23,1.1,4.5,4.5,0,0,0-.811,2.722,4.449,4.449,0,0,0,.782,2.693l.087.087a2.85,2.85,0,0,0,4.025.348,3.11,3.11,0,0,0,.956-1.882l-1.014-.174C307.9,121.776,307.291,122.384,306.306,122.355Z" transform="translate(-218.501 -82.767)" fill="#989898"/><path d="M332.733,116.681a2.923,2.923,0,0,0-2.259-.985,3.1,3.1,0,0,0-2.375,1.071,4.561,4.561,0,0,0-.029,5.5,3.023,3.023,0,0,0,2.375,1.043,3.284,3.284,0,0,0,1.94-.608,2.927,2.927,0,0,0,1.1-1.535l-1.043-.2h0a1.951,1.951,0,0,1-1.911,1.419,2.224,2.224,0,0,1-1.448-.579,2.736,2.736,0,0,1-.7-2.2H333.6A4.3,4.3,0,0,0,332.733,116.681Zm-.347,2.085-4,.029a2.55,2.55,0,0,1,.666-1.622,1.884,1.884,0,0,1,1.419-.608,1.614,1.614,0,0,1,1.072.319,1.741,1.741,0,0,1,.637.811,3.347,3.347,0,0,1,.2,1.072Z" transform="translate(-235.459 -82.769)" fill="#989898"/><path d="M235.434,116.681a2.923,2.923,0,0,0-2.259-.985,3.1,3.1,0,0,0-2.375,1.071,4.561,4.561,0,0,0-.029,5.5,3.023,3.023,0,0,0,2.375,1.043,3.1,3.1,0,0,0,1.94-.608,2.926,2.926,0,0,0,1.1-1.535l-1.043-.2h0a1.984,1.984,0,0,1-1.94,1.419,2.224,2.224,0,0,1-1.448-.579,2.736,2.736,0,0,1-.7-2.2H236.3A4.3,4.3,0,0,0,235.434,116.681Zm-4.344,2.114a2.551,2.551,0,0,1,.666-1.622,1.884,1.884,0,0,1,1.419-.608,1.614,1.614,0,0,1,1.072.319,1.946,1.946,0,0,1,.637.811,3.347,3.347,0,0,1,.2,1.072Z" transform="translate(-166.336 -82.769)" fill="#989898"/><path d="M153.133,116.681a2.923,2.923,0,0,0-2.259-.985,3.1,3.1,0,0,0-2.375,1.071,4.561,4.561,0,0,0-.029,5.5,3.023,3.023,0,0,0,2.375,1.043,3.284,3.284,0,0,0,1.94-.608,3.092,3.092,0,0,0,1.1-1.535l-1.043-.2h0a1.951,1.951,0,0,1-1.911,1.419,2.224,2.224,0,0,1-1.448-.579,2.736,2.736,0,0,1-.7-2.2H154A4.3,4.3,0,0,0,153.133,116.681Zm-4.344,2.114a2.551,2.551,0,0,1,.666-1.622,1.884,1.884,0,0,1,1.419-.608,1.614,1.614,0,0,1,1.072.319,1.947,1.947,0,0,1,.637.811,3.348,3.348,0,0,1,.2,1.072Z" transform="translate(-107.87 -82.769)" fill="#989898"/><path d="M120.932,121.786,119.31,116.4H118.5l-1.506,5.386-1.564-5.386H114.3l2.172,7.211h.927l1.477-5.357,1.622,5.357h.9l2.085-7.211h-.927Z" transform="translate(-84.24 -83.27)" fill="#989898"/><path d="M178.143,110.046a2.353,2.353,0,0,0-2.114,1.39V107.7H174.9v9.73h.55l.405-1.187a2.464,2.464,0,0,0,2.259,1.39,2.534,2.534,0,0,0,2.143-1.072,4.473,4.473,0,0,0,.811-2.693,4.309,4.309,0,0,0-.84-2.838A2.664,2.664,0,0,0,178.143,110.046Zm1.245,5.908a1.667,1.667,0,0,1-1.39.753,1.9,1.9,0,0,1-1.274-.492,2.29,2.29,0,0,1-.7-1.622l.029-1.622a2.566,2.566,0,0,1,.666-1.477,1.755,1.755,0,0,1,1.274-.579,1.605,1.605,0,0,1,1.419.811,3.911,3.911,0,0,1,.492,2.2A3.544,3.544,0,0,1,179.389,115.953Z" transform="translate(-127.291 -77.09)" fill="#989898"/><path d="M210.1,118.966l-1.39-.261c-.753-.145-1.129-.492-1.129-1.014a.885.885,0,0,1,.434-.782,2.19,2.19,0,0,1,1.129-.29,1.753,1.753,0,0,1,1.824,1.129l1.014-.232c-.376-1.216-1.332-1.824-2.9-1.824a2.93,2.93,0,0,0-1.94.608,1.936,1.936,0,0,0-.724,1.506,1.767,1.767,0,0,0,.521,1.332,2.926,2.926,0,0,0,1.419.666l1.506.29c.84.145,1.245.521,1.245,1.072a.944.944,0,0,1-.492.9,2.155,2.155,0,0,1-1.187.319c-1.274,0-2.027-.463-2.259-1.361l-1.072.232c.405,1.361,1.448,2.056,3.157,2.056a3.618,3.618,0,0,0,2.23-.608,1.936,1.936,0,0,0,.811-1.593C212.3,119.95,211.573,119.226,210.1,118.966Z" transform="translate(-149.455 -82.766)" fill="#989898"/><path d="M349.093,56.209a3.108,3.108,0,0,0-2.751-1.419c-1.622,0-2.548.811-3.214,2.462h-.058V55.4a.463.463,0,0,0-.405-.348h-2.2a.445.445,0,0,0-.463.405V67.59a.446.446,0,0,0,.434.434h2.346a.446.446,0,0,0,.434-.434V61.045a5.6,5.6,0,0,1,.377-2.288,1.554,1.554,0,0,1,1.361-.956c1.622,0,1.477,1.94,1.477,3.272v6.574a.439.439,0,0,0,.434.376h2.375a.422.422,0,0,0,.463-.376V59.974A7.777,7.777,0,0,0,349.093,56.209Z" transform="translate(-244.579 -39.499)" fill="#989898"/><path d="M300.771,54.9c-3.388,0-5.271,2.983-5.271,6.719s2,6.748,5.271,6.748,5.358-2.809,5.358-6.632S304.246,54.9,300.771,54.9Zm.029,10.976c-1.853,0-1.824-2.867-1.824-4.344s.087-3.852,1.824-3.852a1.424,1.424,0,0,1,1.564,1.187,11.9,11.9,0,0,1,.348,3.214C302.711,63.646,302.653,65.876,300.8,65.876Z" transform="translate(-212.965 -39.58)" fill="#989898"/><path d="M174.428,67.638V59.993c0-1.3.145-2.78-.608-3.794a3.464,3.464,0,0,0-5.995.927,3.161,3.161,0,0,0-3.07-2.259,3.123,3.123,0,0,0-3.1,2.259H161.6V55.533a.44.44,0,0,0-.434-.405h-2.23a.446.446,0,0,0-.434.434V67.667a.44.44,0,0,0,.434.405h2.4a.446.446,0,0,0,.434-.434V61.209c0-1.39-.058-3.33,1.622-3.33s1.448,1.969,1.448,3.33v6.429a.446.446,0,0,0,.434.434h2.375a.446.446,0,0,0,.434-.434V61.209a7.6,7.6,0,0,1,.232-2.317,1.48,1.48,0,0,1,2.809.058,14.527,14.527,0,0,1,.058,2.259v6.429a.446.446,0,0,0,.434.434h2.375A.446.446,0,0,0,174.428,67.638Z" transform="translate(-115.64 -39.548)" fill="#989898"/><path d="M271.509,65.4a8.765,8.765,0,0,0-4.431-.956l4.025-5.734c.376-.521.579-.84.579-1.1V56.134a.446.446,0,0,0-.434-.434h-7.761a.446.446,0,0,0-.434.434v1.738a.446.446,0,0,0,.434.434h4.054L262.879,65a2.13,2.13,0,0,0-.29,1.187V67.95c0,.261.29.55.55.405a8.99,8.99,0,0,1,8.2-.029.428.428,0,0,0,.579-.405V66.067A.793.793,0,0,0,271.509,65.4Z" transform="translate(-189.582 -40.149)" fill="#989898"/><path d="M226.544,59.655a16.4,16.4,0,0,0-4.431.811,4.024,4.024,0,0,0-2.519,3.852A3.5,3.5,0,0,0,223.127,68a4.677,4.677,0,0,0,3.91-1.709A5.416,5.416,0,0,0,228.4,67.85a.537.537,0,0,0,.55-.058h0l1.824-1.535.029-.029a.448.448,0,0,0-.029-.608,3.287,3.287,0,0,1-.9-2.2V59.742c0-1.535-.145-3.186-1.043-4.054A5.353,5.353,0,0,0,225.27,54.5c-2.23,0-4.749.84-5.271,3.62v.029a.376.376,0,0,0,.319.463l2.288.261a.493.493,0,0,0,.405-.434,1.82,1.82,0,0,1,1.911-1.419,1.581,1.581,0,0,1,1.332.608,2.907,2.907,0,0,1,.29,1.709Zm.029,1.882v.492a4.711,4.711,0,0,1-.434,2.519,1.9,1.9,0,0,1-1.622,1.072c-.9,0-1.448-.7-1.448-1.709C223.069,61.914,224.865,61.537,226.573,61.537Z" transform="translate(-159.04 -39.296)" fill="#989898"/><path d="M120.544,59.655a16.4,16.4,0,0,0-4.431.811,4.024,4.024,0,0,0-2.519,3.852A3.5,3.5,0,0,0,117.127,68a4.677,4.677,0,0,0,3.91-1.709A5.416,5.416,0,0,0,122.4,67.85a.537.537,0,0,0,.55-.058h0l1.824-1.535.029-.029a.448.448,0,0,0-.029-.608,3.287,3.287,0,0,1-.9-2.2V59.742c0-1.535-.145-3.186-1.043-4.054A5.353,5.353,0,0,0,119.27,54.5c-2.23,0-4.749.84-5.271,3.62v.029a.376.376,0,0,0,.319.463l2.288.261a.493.493,0,0,0,.405-.434,1.82,1.82,0,0,1,1.911-1.419,1.581,1.581,0,0,1,1.332.608,2.908,2.908,0,0,1,.29,1.709Zm.029,1.882v.492a4.711,4.711,0,0,1-.434,2.519,1.9,1.9,0,0,1-1.622,1.072c-.9,0-1.448-.7-1.448-1.709C117.069,61.914,118.865,61.537,120.573,61.537Z" transform="translate(-83.737 -39.296)" fill="#989898"/></g></g></svg>