<?xml version="1.0" encoding="utf-8"?>
<!-- Generator: Adobe Illustrator 16.0.0, SVG Export Plug-In . SVG Version: 6.00 Build 0)  -->
<!DOCTYPE svg PUBLIC "-//W3C//DTD SVG 1.1//EN" "http://www.w3.org/Graphics/SVG/1.1/DTD/svg11.dtd">
<svg version="1.1" id="Layer_1" xmlns="http://www.w3.org/2000/svg" xmlns:xlink="http://www.w3.org/1999/xlink" x="0px" y="0px"
	 width="30.545px" height="43.011px" viewBox="0 0 30.545 43.011" enable-background="new 0 0 30.545 43.011" xml:space="preserve">
<g transform="translate(-93.368 -272.744)">
	<g transform="translate(93.368 272.744)">
		<path fill="#FFFFFF" d="M23.398,11.725c-0.487-1.717-0.703-3.499-0.639-5.282c0.02-0.434-0.016-0.867-0.108-1.292
			c-0.083-1.742-1.365-3.192-3.083-3.49c-0.54-0.103-1.095-0.09-1.629,0.038c-2.746,0.639-4.768,2.974-5.008,5.782
			c-0.124,2.426,2.42,6.967,1.011,8.619c-0.738,0.864-4.194,0.862-5.6,1.228l3.243-0.115c1.084-0.029,2.075,0.613,2.49,1.615
			c0.085,0.174,0.152,0.355,0.2,0.542l0,0l0.016,0.069l0.015,0.07l0.013,0.069l0,0c0,0.024,0.008,0.048,0.011,0.072l0,0l0.011,0.072
			l0.009,0.073l0.007,0.072l0.005,0.074c0.006,0.101,0.006,0.201,0,0.3l-0.008,0.248c-0.004,0.127-0.015,0.253-0.033,0.378l0,0
			l-0.012,0.074l-0.013,0.073l0,0l-0.015,0.073l-0.016,0.071l0,0l-0.018,0.072l-0.019,0.071l-0.022,0.07l-0.023,0.069l-0.024,0.07
			l-0.026,0.07l-0.027,0.066l-0.024,0.058c-0.284,0.724-0.811,1.327-1.489,1.708c1.35,0.184,2.365,1.321,2.396,2.683
			c0.006,0.1,0.008,0.194,0.005,0.294l-0.008,0.247c-0.075,1.536-1.221,2.807-2.741,3.04l0.054,0.014
			c0.039,0.011,0.078,0.022,0.116,0.035h0.011c0.081,0.026,0.159,0.058,0.236,0.093l0,0c0.075,0.034,0.148,0.072,0.219,0.114
			l0.012,0.006l0.012,0.007l0.043,0.027l0,0c0.053,0.033,0.104,0.068,0.155,0.106l0.011,0.008c0.032,0.023,0.065,0.05,0.1,0.075l0,0
			l0,0c0.16,0.134,0.304,0.287,0.427,0.455l0.037,0.053c0.081,0.115,0.152,0.237,0.214,0.364v0.009L13.92,31.1v0.006
			c0.015,0.038,0.033,0.074,0.054,0.108l0.005,0.014l0.046,0.126l0.018,0.057c0.01,0.031,0.019,0.063,0.028,0.095l0.01,0.037v0.013
			v0.017l0.012,0.051v0.007l0.014,0.063v0.017l0.009,0.047v0.022c0.006,0.036,0.012,0.07,0.016,0.106l0.005,0.041l0.006,0.051
			l0.005,0.058v0.031v0.059v0.047v0.051v0.129v0.072l-0.009,0.244c-0.027,1.5-1.12,2.767-2.6,3.014
			c0.037,0.009,0.072,0.019,0.108,0.03c0.039,0.012,0.077,0.023,0.115,0.038l0,0c0.188,0.069,0.365,0.165,0.527,0.283l0.008,0.006
			c0.217,0.162,0.406,0.359,0.56,0.582l0.022,0.031l0.015,0.023v0.005c0.068,0.104,0.129,0.213,0.183,0.326l0.012,0.024l0.005,0.013
			l0.016,0.033l0.023,0.053v0.01v0.009c0.033,0.079,0.062,0.159,0.087,0.241l0,0v0.01l0.018,0.062l0.005,0.019l0.013,0.05l0,0
			c0.167,0.742,0.133,1.515-0.1,2.238c-0.237,1.009-1.097,1.749-2.13,1.833L7.245,41.77l4.471,0.241h10.136l1.555-0.106
			c0.172-0.021,0.342-0.058,0.508-0.107c3.254-0.775,5.571-3.655,5.63-7c0,0-0.3-10.183-0.151-13.114
			c0.223-4.27-1.631-4.945-4.217-6.786c-0.895-0.858-1.515-1.963-1.782-3.174L23.398,11.725z M11.646,17.532
			c1.369-0.036,2.508,1.044,2.544,2.412c0.002,0.085,0,0.17-0.006,0.254l-0.008,0.231c-0.041,1.515-1.226,2.75-2.737,2.855
			l-6.551,0.246c-1.371,0.034-2.51-1.049-2.544-2.42c-0.002-0.083,0-0.165,0.006-0.248l0.008-0.23
			c0.041-1.514,1.221-2.751,2.731-2.862l6.545-0.239L11.646,17.532z M11.995,23.633c1.443-0.101,2.694,0.987,2.795,2.431
			c0.006,0.086,0.008,0.173,0.005,0.26l-0.008,0.233c-0.103,1.593-1.396,2.847-2.991,2.9l-7.19,0.261
			c-1.441,0.103-2.692-0.983-2.795-2.425c-0.006-0.088-0.008-0.178-0.005-0.267l0.008-0.232c0.102-1.593,1.396-2.848,2.991-2.9
			l7.191-0.262L11.995,23.633z M11.469,29.842c1.341-0.071,2.486,0.959,2.557,2.3c0.005,0.09,0.005,0.181,0,0.27l-0.009,0.223
			c-0.075,1.493-1.267,2.688-2.76,2.769l-6.6,0.247c-1.342,0.069-2.487-0.962-2.557-2.305c-0.004-0.089-0.004-0.178,0.001-0.267
			l0.009-0.222c0.075-1.494,1.267-2.689,2.76-2.769L11.469,29.842z"/>
		<path fill="#FFFFFF" d="M10.892,35.854c1.313,0.025,2.358,1.11,2.333,2.424c-0.001,0.066-0.005,0.132-0.012,0.197l-0.005,0.225
			c0.02,1.428-1.05,2.636-2.469,2.789l-5.95,0.207c-1.315-0.025-2.36-1.112-2.334-2.427c0.001-0.065,0.005-0.13,0.012-0.194
			l0.005-0.225c-0.02-1.427,1.05-2.635,2.469-2.788L10.892,35.854L10.892,35.854z"/>
	</g>
</g>
</svg>
