<?xml version="1.0" encoding="iso-8859-1"?><svg xmlns="http://www.w3.org/2000/svg" width="119" height="54" viewBox="0 0 119 54"><g transform="translate(0.07 0.046)"><rect width="119" height="54" transform="translate(-0.07 -0.046)" fill="none"/><g transform="translate(8.183 9.156)"><path d="M145.326,74.309c.37-.1.372.278.572.211S145.9,74.045,145.326,74.309Z" transform="translate(-131.233 -66.148)" fill="#989898"/><path d="M139.072,74.72c.211-.008.082-.359.462-.4C138.907,74.275,138.864,74.728,139.072,74.72Z" transform="translate(-126.589 -66.218)" fill="#989898"/><path d="M122.39,73.464c-.566-.351-1.905-.723-2.018-3.293-.507.45-.448,2.845.966,3.32,1.58.531,2.567,1.42-.37,2.424a8.825,8.825,0,0,0-3.815,2.152c-1.558,1.3-3.87.782-3.466-1.949a8.761,8.761,0,0,0-.022-3.835,4.38,4.38,0,0,1-.141-1.922c.23-1.057.8-1.375,1.362-.36.352.637.475,1.381,1.735,1.442,1.979.095,2.371-1.913,3-2,.422-.061.844-1.255.522-3.187a15.518,15.518,0,0,0-3.122-6.989,10.152,10.152,0,0,1-2.628-4.305,12.036,12.036,0,0,1-.585-4.2,6.772,6.772,0,0,0-2.392-5.315,6.689,6.689,0,0,0-3.845-1.083,4.458,4.458,0,0,0-2.045.422c-2.284,1.24-2.6,3.012-2.569,5.033.032,1.9.1,4.067.312,6.128a16.176,16.176,0,0,1-2.437,3.833c-1.145,1.131-1.723,3.317-2.464,5.227-.395,1.018-1.061,1.478-1.117,2.787-.016.366,0,1.313.347,1.042,1.339-1.036,3.015,1.575,5.547,5.56.485.764,2.2,3.981-.8,4.4-1,.139-2.617-.583-4.181-.966-1.405-.344-2.833-.547-3.631-.772-.481-.135-.682-.308-.724-.509-.111-.534.584-1.283.619-1.915a2.932,2.932,0,0,0-.448-1.477c-.218-.517-.275-.9-.1-1.126.136-.172.411-.245.86-.2a2.961,2.961,0,0,0,1.625-.286A1.738,1.738,0,0,0,97,69.447a1.624,1.624,0,0,1-1.053,1.682c-.71.4-1.805.075-2.309.512-.606.526.216,1.883.149,2.879-.052.765-.851,1.628-.494,2.4s2.03.857,3.772,1.221c2.477.518,3.921,1.42,5.066,1.463,1.67.062,1.926-1.652,4.547-1.675.764-.04,1.512-.064,2.259-.074.847-.011,1.692,0,2.56.017,1.745.042,1.145.952,2.276,1.534a3.645,3.645,0,0,0,3.083-.095,16.725,16.725,0,0,1,3.191-2.381C121.473,76.208,124.82,74.972,122.39,73.464Zm-9.963-18.572c.142-.148.214.256.595.5.3.19.595.049.671.435.054.276-.118.576-.35.537C112.94,56.292,112.01,55.331,112.428,54.892ZM110.1,47.017c.064-.191-.129-.617.264-.642.152-.01.311.128.473.283s.434.263.4.357c-.084.217-.54.167-.638.2-.38.136-.488.5-.676.347S110.028,47.233,110.1,47.017Zm-9.459,14.718c.162-.28.131-.629.3-.578s.075.247-.041.568c-.1.273-.386.511-.485.5C100.146,62.192,100.494,61.989,100.641,61.735Zm12.7,12.419c-.088,1.1-.393,2.195-.566,3.3-.583-.022-.527-.45-.339-1.049a7.016,7.016,0,0,0,.449-1.827c.016-.575-.047-.934-.192-1.023s-.372.092-.686.6a4.685,4.685,0,0,1-3.474,1.723c-1.355.17-2.614.035-3.28-.712-.228-.255-.606.07-.651.138-.06.091.221.267.433.656.309.567.6,1.428-.13,1.821.009-2-.623-2.114-1.269-3.334a1.216,1.216,0,0,0,.835-2.052c-.49-.481-3.2-2.49-3.9-3.28-.328-.367-.772-.547-.96-.958a3.831,3.831,0,0,1-.187-3.272c.1-.176.163-.1.087.269-.431,2.073.918,3.766,1.216,2.9a19.688,19.688,0,0,0,.125-2.525c.194-1.508,1.567-4.4,2.17-4.569-.93-1.723,1.091-3.071,1.066-4.583-.017-.983.863,1.209,1.748,1.674.987.519,2.073-.978,3.613-1.738.436-.215.995-.462.957-.645-.181-.884-2.024,1.091-3.669,1.157a1.505,1.505,0,0,1-1.32-.428c-.877-.848.09-.14,1.393-.376a5.688,5.688,0,0,0,1.389-.45,18.382,18.382,0,0,1,2.014-.805c.484-.132.444-.5.256-.605-.109-.063-.269-.057-.4.163-.3.516-1.7.815-2.141.949a5.694,5.694,0,0,1-2.012.3c-1.256-.051-.964-.627-1.862-1.142-.264-.151-.192-.548.158-.9.183-.184.686-.287.935-.7a3.491,3.491,0,0,1,.608-.569c.087-.06.095-1.594-.692-1.625-.669-.027-.859.491-.831,1.008s.3.942.484.94c.351,0,.022.384-.17.446-.292.1-.692-1.149-.646-1.747.048-.622.372-1.724,1.16-1.7.709.019,1.223.909,1.2,2.442,0,.26,1.15-.124,1.536.283.275.291-.944-2.718,1.771-2.925.716.137,1.4.375,1.688,2.02-.106.171.178,1.319-.264,1.455-.539.166-.872-.024-.56-.537.213-.516,0-1.827-1.086-1.748s-.946,2.014-.647,2.053,1.052.573,1.578.675c1.725.336.458,1.325.682,2.522.253,1.352,1.144,1,1.944,4.576.167.218.83.425,1.476,3.176.581,2.475-.242,4.275,1.156,4.127a1.008,1.008,0,0,0,.975-.823c.523-1.833-.262-4.018-1.054-5.492a6.931,6.931,0,0,0-1.126-1.646,6.5,6.5,0,0,1,2.338,3.525,6.643,6.643,0,0,1,.071,4.149c.307.154,1.072.478,1.072.843-.8-.655-3.235-.771-3.3.795a1.162,1.162,0,0,0-1,.36C112.529,70.564,113.439,72.9,113.34,74.154Zm-8.267-22.849c-.127.027-.156-.318.084-.257a.87.87,0,0,1,.276.875c-.011.064-.041.069-.069.069-.17,0-.19-.154-.144-.4C105.252,51.415,105.146,51.289,105.072,51.305Zm5.114.3c0,.065-.206.135-.21.108-.033-.3-.186-.572-.345-.62-.124-.037-.194-.159.052-.181A.669.669,0,0,1,110.186,51.61Z" transform="translate(-93.202 -44.358)" fill="#989898"/><path d="M240.535,69.074H237.69V89.4h12.231V86.936h-9.386Z" transform="translate(-198.626 -62.392)" fill="#989898"/><path d="M293.583,64.409a1.749,1.749,0,0,0-1.246.484,1.915,1.915,0,0,0,0,2.61,1.847,1.847,0,0,0,2.493,0,1.916,1.916,0,0,0,0-2.61A1.752,1.752,0,0,0,293.583,64.409Z" transform="translate(-238.123 -58.988)" fill="#989898"/><rect width="2.728" height="15.252" transform="translate(54.111 11.756)" fill="#989898"/><path d="M331.8,88.6a4.731,4.731,0,0,0-1.921-1.437,7.734,7.734,0,0,0-3.021-.513,21.558,21.558,0,0,0-3.578.264q-1.555.264-2.493.5v14.812h2.728V89.347q.146-.029.484-.088c.224-.039.479-.073.762-.1s.582-.054.895-.074.616-.029.909-.029a5.157,5.157,0,0,1,1.818.279,2.5,2.5,0,0,1,1.173.894,4.075,4.075,0,0,1,.63,1.613,13.017,13.017,0,0,1,.191,2.4v7.978h2.728V93.658a12.853,12.853,0,0,0-.294-2.845A5.563,5.563,0,0,0,331.8,88.6Z" transform="translate(-261.133 -75.214)" fill="#989898"/><path d="M392,100.718a2.179,2.179,0,0,1-.484.1q-.337.044-.748.088t-.88.073q-.469.03-.909.029a3.426,3.426,0,0,1-2.962-1.2,6.914,6.914,0,0,1-.88-3.989V87.842H382.4v8.564a11.54,11.54,0,0,0,.323,2.83,5.885,5.885,0,0,0,1.056,2.214,4.771,4.771,0,0,0,1.936,1.452,7.557,7.557,0,0,0,2.962.513,21.264,21.264,0,0,0,3.564-.264q1.54-.264,2.478-.5V87.842H392Z" transform="translate(-308.393 -76.085)" fill="#989898"/><path d="M449.865,98.943q-1.482-2.126-2.889-4.033l4.928-7.069H449l-3.666,5.338L441.7,87.842h-3.08l5.045,7.244q-1.408,1.878-2.83,3.945a37.258,37.258,0,0,0-2.449,4.062H441.2q.322-.616.792-1.408T443,100.058q.542-.835,1.129-1.672t1.144-1.569q.557.733,1.144,1.555t1.144,1.657q.557.836,1.027,1.628t.792,1.437h2.992A35.089,35.089,0,0,0,449.865,98.943Z" transform="translate(-350.387 -76.085)" fill="#989898"/></g></g></svg>