<?xml version="1.0" encoding="iso-8859-1"?><svg xmlns="http://www.w3.org/2000/svg" width="161" height="54" viewBox="0 0 161 54"><g transform="translate(0.052 0.046)"><rect width="161" height="54" transform="translate(-0.052 -0.046)" fill="none"/><g transform="translate(10.739 12.12)"><path d="M178.137,32.624l-.832,2.357h-.069a16.734,16.734,0,0,0-.809-2.311l-4.46-11.207H167.6V39.325h2.888V28.3c0-.693,0-1.479-.023-2.449-.023-.485-.069-.855-.092-1.132h.069a10.793,10.793,0,0,0,.416,1.525l5.361,13.033h2.033l5.315-13.148a13.991,13.991,0,0,0,.347-1.41h.069c-.069,1.317-.116,2.5-.139,3.212V39.256h3.073V21.417h-4.206Zm11.692-6.17h3v12.8h-3Zm1.525-5.407a1.8,1.8,0,0,0-1.271.508,1.7,1.7,0,0,0,0,2.472,1.781,1.781,0,0,0,1.271.485,1.843,1.843,0,0,0,1.271-.485,1.625,1.625,0,0,0,.531-1.225,1.713,1.713,0,0,0-.531-1.248,1.686,1.686,0,0,0-1.271-.508m12.131,5.292a8.379,8.379,0,0,0-1.687-.185,7.249,7.249,0,0,0-3.651.9,6.035,6.035,0,0,0-2.4,2.472,7.859,7.859,0,0,0-.832,3.7,6.858,6.858,0,0,0,.809,3.3,5.539,5.539,0,0,0,2.265,2.288,6.666,6.666,0,0,0,3.3.809,7.262,7.262,0,0,0,3.628-.855l.023-.023V35.975l-.116.092a5.164,5.164,0,0,1-1.456.763,4.454,4.454,0,0,1-1.433.277A3.544,3.544,0,0,1,199.118,36a4.262,4.262,0,0,1-1.04-3.027,4.368,4.368,0,0,1,1.063-3.119,3.709,3.709,0,0,1,2.819-1.155,4.917,4.917,0,0,1,2.865.971l.116.092V26.824l-.023-.023a6.967,6.967,0,0,0-1.433-.462m9.913-.092a3.17,3.17,0,0,0-2.033.716A4.312,4.312,0,0,0,210.21,28.7h-.023V26.455h-3v12.8h3V32.717a4.409,4.409,0,0,1,.739-2.7,2.316,2.316,0,0,1,1.941-1.04,7.411,7.411,0,0,1,.9.116,2.371,2.371,0,0,1,.716.3l.116.092v-3l-.069-.023a2.283,2.283,0,0,0-1.132-.208m8.18-.069a6.624,6.624,0,0,0-4.968,1.849,6.883,6.883,0,0,0-1.779,5.037,6.587,6.587,0,0,0,1.756,4.783,7.215,7.215,0,0,0,9.566-.116,6.859,6.859,0,0,0,1.779-4.968,6.686,6.686,0,0,0-1.687-4.829,6.081,6.081,0,0,0-4.668-1.756m2.4,9.844a3.029,3.029,0,0,1-2.519,1.063,3.156,3.156,0,0,1-2.588-1.109,4.564,4.564,0,0,1-.924-3.073,4.851,4.851,0,0,1,.924-3.143,3.178,3.178,0,0,1,2.565-1.109,3.073,3.073,0,0,1,2.5,1.063,4.739,4.739,0,0,1,.924,3.119,5.346,5.346,0,0,1-.878,3.189m10.652-4.252a7.2,7.2,0,0,1-1.826-.947,1.312,1.312,0,0,1-.347-.971,1.073,1.073,0,0,1,.485-.924,2.226,2.226,0,0,1,1.317-.347,5.981,5.981,0,0,1,1.548.231,3.984,3.984,0,0,1,1.34.624l.116.092V26.709l-.069-.023a8.34,8.34,0,0,0-1.363-.393,9.263,9.263,0,0,0-1.479-.139,5.354,5.354,0,0,0-3.535,1.109,3.416,3.416,0,0,0-1.363,2.819,3.669,3.669,0,0,0,.3,1.571,3.5,3.5,0,0,0,.924,1.2,8.052,8.052,0,0,0,1.849,1.04c.693.3,1.225.531,1.548.716a3.137,3.137,0,0,1,.693.555,1.314,1.314,0,0,1,.185.716c0,.855-.647,1.271-1.964,1.271a5.186,5.186,0,0,1-1.664-.3A6.429,6.429,0,0,1,229.643,36l-.116-.092V38.84l.069.023a8.962,8.962,0,0,0,1.618.508,10.317,10.317,0,0,0,1.733.208,5.627,5.627,0,0,0,3.72-1.109,3.538,3.538,0,0,0,1.41-2.912,3.24,3.24,0,0,0-.739-2.2,9.369,9.369,0,0,0-2.7-1.594M246,26.177a6.624,6.624,0,0,0-4.968,1.849,6.98,6.98,0,0,0-1.779,5.037,6.587,6.587,0,0,0,1.756,4.783,7.215,7.215,0,0,0,9.566-.116,6.859,6.859,0,0,0,1.779-4.968,6.687,6.687,0,0,0-1.687-4.829A6.081,6.081,0,0,0,246,26.177m2.38,9.844a3.029,3.029,0,0,1-2.519,1.063,3.126,3.126,0,0,1-2.588-1.109,4.564,4.564,0,0,1-.924-3.073,4.852,4.852,0,0,1,.924-3.143,3.178,3.178,0,0,1,2.565-1.109,3.1,3.1,0,0,1,2.5,1.063,4.74,4.74,0,0,1,.924,3.119,5.041,5.041,0,0,1-.878,3.189m20.034-7.094V26.455H265.39v-3.79l-.092.023-2.865.855-.069.023v2.888h-4.529V24.837a2.534,2.534,0,0,1,.508-1.687,1.794,1.794,0,0,1,1.41-.555,3.372,3.372,0,0,1,1.34.3l.116.069V20.354l-.069-.023a5.778,5.778,0,0,0-4.09.324,4.008,4.008,0,0,0-1.641,1.641,4.728,4.728,0,0,0-.6,2.38v1.779h-2.1V28.9h2.1V39.256h3.027V28.927h4.529v6.586c0,2.7,1.271,4.067,3.813,4.067a7.918,7.918,0,0,0,1.271-.139,4.157,4.157,0,0,0,.947-.3l.023-.023V36.645l-.116.092a1.953,1.953,0,0,1-.624.277,2.115,2.115,0,0,1-.6.092,1.6,1.6,0,0,1-1.317-.485,2.5,2.5,0,0,1-.416-1.641V28.927h3.073Z" transform="translate(-128.872 -15.455)" fill="#989898"/><path d="M0,0H14.165V14.165H0Z" fill="#989898"/><path d="M67.7,0H81.865V14.165H67.7Z" transform="translate(-52.056)" fill="#989898"/><path d="M0,67.7H14.165V81.865H0Z" transform="translate(0 -52.056)" fill="#989898"/><path d="M67.7,67.7H81.865V81.865H67.7Z" transform="translate(-52.056 -52.056)" fill="#989898"/></g></g></svg>