<?xml version="1.0" encoding="iso-8859-1"?><svg xmlns="http://www.w3.org/2000/svg" width="215" height="97" viewBox="0 0 215 97"><g transform="translate(-280 -266)"><rect width="215" height="97" transform="translate(280 266)" fill="none"/><g transform="translate(-748.05 939.438)"><rect width="215" height="97" transform="translate(1028.05 -673.438)" fill="none"/><path d="M1199.32-649.64h-94.546a20.345,20.345,0,0,0-25.121-14.027,20.347,20.347,0,0,0-14.8,19.616v15.489a26.171,26.171,0,0,0,3.957,36.8,26.171,26.171,0,0,0,35.107-2.056h95.4c15.411-.055,13.585-12.556,13.64-27.967C1212.843-637.142,1214.677-649.585,1199.32-649.64Zm-125.889,5.589a11.77,11.77,0,0,1,11.77-11.77,11.769,11.769,0,0,1,11.77,11.77v8.574a26.115,26.115,0,0,0-23.54,0Zm-9.479,31.986a21.249,21.249,0,0,1,21.256-21.242,21.248,21.248,0,0,1,21.242,21.255,21.249,21.249,0,0,1-21.255,21.243,21.25,21.25,0,0,1-21.243-21.243Zm134.861,14.591H1106.89a26.155,26.155,0,0,0-1.347-31.107v-15.47c0-.671-.055-1.291-.113-1.962h93.385c13.4.055,9.884,10.871,9.942,24.269-.058,13.411,3.453,24.227-9.942,24.282ZM1067.274-612.05a17.927,17.927,0,0,0,17.935,17.919,17.927,17.927,0,0,0,17.919-17.935,17.926,17.926,0,0,0-17.935-17.919,17.927,17.927,0,0,0-17.919,17.919Zm20.615,5.289h-5.546l.729-5.044a3.082,3.082,0,0,1-1.133-2.41,3.133,3.133,0,0,1,3.126-3.14h.127a3.143,3.143,0,0,1,3.081,3.2,3.143,3.143,0,0,1-1.119,2.343l.729,5.044Zm49.371-14.74a16.108,16.108,0,0,1-5.828-2.8,5.351,5.351,0,0,1-1.789-4.1,5.659,5.659,0,0,1,2.243-4.6,9.081,9.081,0,0,1,5.773-1.794,9.522,9.522,0,0,1,4.314.968,6.977,6.977,0,0,1,2.97,2.586,6.661,6.661,0,0,1,1.01,3.588h-3.083a4.352,4.352,0,0,0-1.346-3.362,6.68,6.68,0,0,0-7.4-.223,3.358,3.358,0,0,0-1.233,2.746,3.136,3.136,0,0,0,1.234,2.468,12.44,12.44,0,0,0,4.146,1.794,22.922,22.922,0,0,1,4.6,1.794,7.4,7.4,0,0,1,2.465,2.3,6.014,6.014,0,0,1,.784,3.082,5.5,5.5,0,0,1-2.243,4.6,9.375,9.375,0,0,1-5.944,1.73,10.662,10.662,0,0,1-4.54-.968,7.464,7.464,0,0,1-3.25-2.532,6.138,6.138,0,0,1-1.178-3.643h3.078a3.966,3.966,0,0,0,1.568,3.362,7.157,7.157,0,0,0,4.259,1.233,6.456,6.456,0,0,0,3.756-1.01,3.5,3.5,0,0,0,.5-4.924,3.483,3.483,0,0,0-.445-.455,14.544,14.544,0,0,0-4.427-1.849Zm19.616,0a16.109,16.109,0,0,1-5.828-2.8,5.353,5.353,0,0,1-1.794-4.092,5.658,5.658,0,0,1,2.243-4.6,9.08,9.08,0,0,1,5.773-1.794,9.52,9.52,0,0,1,4.314.968,6.97,6.97,0,0,1,2.972,2.581,6.661,6.661,0,0,1,1.01,3.588h-3.082a4.351,4.351,0,0,0-1.341-3.361,6.679,6.679,0,0,0-7.4-.223,3.424,3.424,0,0,0-1.291,2.8,3.135,3.135,0,0,0,1.233,2.465,12.441,12.441,0,0,0,4.146,1.794,22.914,22.914,0,0,1,4.6,1.794,7.4,7.4,0,0,1,2.465,2.3,6.015,6.015,0,0,1,.784,3.082,5.5,5.5,0,0,1-2.243,4.6,9.38,9.38,0,0,1-5.941,1.736,10.661,10.661,0,0,1-4.54-.968,7.454,7.454,0,0,1-3.249-2.527,6.137,6.137,0,0,1-1.178-3.643h3.082a3.966,3.966,0,0,0,1.568,3.362,7.157,7.157,0,0,0,4.259,1.233,6.456,6.456,0,0,0,3.756-1.01,3.5,3.5,0,0,0,.5-4.924,3.483,3.483,0,0,0-.445-.455,15.028,15.028,0,0,0-4.372-1.907Zm15.812,7.9h11.155v2.523h-14.35v-23.486h3.082Z" fill="#868686"/></g></g></svg>